<?xml version="1.0" encoding="UTF-8" standalone="no"?>
<!DOCTYPE svg PUBLIC "-//W3C//DTD SVG 1.1//EN" "http://www.w3.org/Graphics/SVG/1.1/DTD/svg11.dtd">
<svg width="100%" height="100%" viewBox="0 0 260 257" version="1.1" xmlns="http://www.w3.org/2000/svg" xmlns:xlink="http://www.w3.org/1999/xlink" xml:space="preserve" xmlns:serif="http://www.serif.com/" style="fill-rule:evenodd;clip-rule:evenodd;stroke-linejoin:round;stroke-miterlimit:2;">
    <g transform="matrix(1,0,0,1,-1521,-582)">
        <g transform="matrix(1,0,0,1,1377,0)">
            <g id="IconMono" transform="matrix(0.260784,-0.0412606,0.0412606,0.260784,87.2461,512.441)">
                <path d="M424.036,846.74C389.722,823.642 359.187,796.69 334.303,764.418C254.879,661.415 279.879,535.77 357.249,451.362C432.831,368.903 556.299,329.893 667.374,389.129C853.135,488.196 789.379,702.285 733.962,777.851C725.056,789.995 715.965,801.859 706.509,813.441C766.136,834.178 824.616,854.623 874.21,881.295C904.491,897.581 944.608,918.937 975.971,947.716C1019.76,987.895 1048.06,1040.48 1038.89,1108.62C1026.16,1203.21 957.486,1263.44 863.527,1295.67C756.594,1332.34 615.499,1331.14 544.981,1331.14C483.449,1331.14 439.471,1322.24 410.567,1309.32C375.924,1293.84 355.617,1271.37 344.525,1247.01C328.355,1211.49 329.754,1164.1 364.279,1110.74C386.142,1076.96 431.322,1067.27 465.11,1089.14C495.732,1108.95 506.553,1147.92 492.037,1180.2C506.744,1182.71 526.417,1185.31 544.981,1185.31C604.965,1185.31 725.258,1188.92 816.217,1157.72C854.312,1144.66 889.197,1127.52 894.36,1089.17C897.134,1068.56 880.591,1056.74 866.124,1045.9C845.899,1030.75 823.007,1019.34 805.135,1009.73C741.465,975.489 661.636,953.246 585.397,925.168C494.84,986.131 364.113,1035.4 147.229,1072.49C107.561,1079.27 69.849,1052.57 63.065,1012.9C56.282,973.236 82.981,935.523 122.649,928.74C256.882,905.787 352.354,878.869 424.036,846.74ZM559.911,757.208C580.928,736.888 599.157,715.07 616.363,691.609C640.91,658.137 681.032,561.689 598.749,517.807C550.364,492.003 497.677,513.982 464.753,549.902C433.609,583.879 417.819,633.905 449.79,675.367C477.716,711.583 516.611,736.745 559.911,757.208Z"/>
            </g>
        </g>
    </g>
</svg>
